<svg width="512" height="512" viewBox="0 0 512 512" fill="none" xmlns="http://www.w3.org/2000/svg">
  <rect width="512" height="512" rx="112" fill="url(#bg)"/>
  <rect x="1" y="1" width="510" height="510" rx="111" stroke="rgba(255,255,255,0.12)" stroke-width="2"/>
  <g opacity="0.92">
    <ellipse cx="256" cy="150.4" rx="62" ry="130" stroke="url(#mark)" stroke-width="34.4"/>
    <ellipse cx="256" cy="150.4" rx="62" ry="130" transform="rotate(60 256 256)" stroke="url(#mark)" stroke-width="34.4"/>
    <ellipse cx="256" cy="150.4" rx="62" ry="130" transform="rotate(120 256 256)" stroke="url(#mark)" stroke-width="34.4"/>
    <ellipse cx="256" cy="150.4" rx="62" ry="130" transform="rotate(180 256 256)" stroke="url(#mark)" stroke-width="34.4"/>
    <ellipse cx="256" cy="150.4" rx="62" ry="130" transform="rotate(240 256 256)" stroke="url(#mark)" stroke-width="34.4"/>
    <ellipse cx="256" cy="150.4" rx="62" ry="130" transform="rotate(300 256 256)" stroke="url(#mark)" stroke-width="34.4"/>
  </g>
  <circle cx="256" cy="256" r="34" fill="url(#core)"/>
  <defs>
    <linearGradient id="bg" x1="256" y1="0" x2="256" y2="512" gradientUnits="userSpaceOnUse">
      <stop stop-color="#0F1115"/>
      <stop offset="1" stop-color="#07080B"/>
    </linearGradient>
    <linearGradient id="mark" x1="96" y1="80" x2="416" y2="432" gradientUnits="userSpaceOnUse">
      <stop stop-color="#F7F3EA"/>
      <stop offset="0.58" stop-color="#EEE8DE"/>
      <stop offset="1" stop-color="#D4C09A"/>
    </linearGradient>
    <radialGradient id="core" cx="0" cy="0" r="1" gradientUnits="userSpaceOnUse" gradientTransform="translate(256 256) rotate(90) scale(68)">
      <stop stop-color="#F8F5EE"/>
      <stop offset="1" stop-color="#D9C5A1"/>
    </radialGradient>
  </defs>
</svg>
